<svg width="20" height="20" viewBox="0 0 20 20" fill="none" xmlns="http://www.w3.org/2000/svg">
<path d="M10.5588 9.44163C10.4115 9.29479 10.2084 9.21057 10.0005 9.21057C9.79259 9.21057 9.58943 9.29479 9.44208 9.44163C9.29525 9.58846 9.21103 9.79214 9.21103 10C9.21103 10.2079 9.29525 10.4111 9.44208 10.5579C9.58947 10.7053 9.79259 10.7895 10.0005 10.7895C10.2084 10.7895 10.4115 10.7052 10.5588 10.5579C10.7057 10.4111 10.7899 10.208 10.7899 10C10.7899 9.79214 10.7057 9.58846 10.5588 9.44163Z" fill="black"/>
<path d="M10.0005 6.3158C7.96906 6.3158 6.31633 7.96845 6.31633 9.99994C6.31633 12.0314 7.96906 13.6841 10.0005 13.6841H10.0006L10.0007 12.8947V13.6841C12.0321 13.6841 13.6847 12.0314 13.6847 9.99994C13.6847 7.96845 12.032 6.3158 10.0005 6.3158ZM10.0007 12.1052H10.0006C8.83973 12.1052 7.89531 11.1608 7.89531 9.99994C7.89531 8.83912 8.83973 7.89474 10.0006 7.89474C11.1614 7.89474 12.1058 8.83912 12.1058 9.99994C12.1058 11.1608 11.1614 12.1052 10.0007 12.1052Z" fill="black"/>
<path d="M10.0005 15.2632C7.09835 15.2632 4.73734 12.9021 4.73734 10C4.73734 9.56405 4.38386 9.21057 3.94788 9.21057C3.51187 9.21057 3.15843 9.56405 3.15843 10C3.15843 13.7728 6.22777 16.8421 10.0005 16.8421C10.4365 16.8421 10.79 16.4887 10.79 16.0527C10.7899 15.6167 10.4364 15.2632 10.0005 15.2632Z" fill="black"/>
<path d="M14.8386 5.16194C13.5463 3.86964 11.8281 3.15796 10.0004 3.15796C9.56441 3.15796 9.21097 3.51144 9.21097 3.94741C9.21097 4.38339 9.56444 4.73687 10.0004 4.73687C11.4063 4.73687 12.728 5.28429 13.7221 6.27839C14.7162 7.27249 15.2636 8.59417 15.2635 10.0001C15.2635 10.4361 15.6169 10.7895 16.053 10.7895C16.4889 10.7895 16.8425 10.436 16.8425 10.0001C16.8426 8.17245 16.1309 6.45425 14.8386 5.16194Z" fill="black"/>
<path d="M10.0004 0.000976562C4.48643 0.00105469 0.000488281 4.48695 0.000488281 10.0009C0.000488281 15.5149 4.48646 20.0009 10.0005 20.0009C15.5146 20.0009 20.0005 15.515 20.0005 10.001C20.0004 4.48695 15.5144 0.000976562 10.0004 0.000976562ZM10.0005 18.4219C5.35709 18.4219 1.57939 14.6443 1.57939 10.0009C1.57939 5.35761 5.35705 1.58 10.0004 1.57996C14.6438 1.57996 18.4214 5.35762 18.4215 10.001C18.4215 14.6443 14.6439 18.4219 10.0005 18.4219Z" fill="black"/>
</svg>
