<svg width="20" height="20" viewBox="0 0 20 20" fill="none" xmlns="http://www.w3.org/2000/svg">
<path d="M10 7.89377C8.83922 7.89377 7.89481 8.83815 7.89481 9.99897C7.89481 11.1598 8.83922 12.1042 10 12.1042C11.1608 12.1042 12.1053 11.1598 12.1053 9.99897C12.1053 8.83815 11.1609 7.89377 10 7.89377ZM10.5582 10.5572C10.4114 10.7041 10.2077 10.7883 10.0003 10.7883C9.79239 10.7883 9.58871 10.7041 9.44192 10.5572C9.29508 10.4099 9.21082 10.2067 9.21082 9.99889C9.21082 9.791 9.29508 9.58784 9.44192 9.441C9.58871 9.29362 9.79239 9.20944 10.0003 9.20944C10.2082 9.20944 10.4114 9.29366 10.5582 9.441C10.7056 9.58733 10.7897 9.791 10.7897 9.99889C10.7897 10.2067 10.7055 10.4104 10.5582 10.5572Z" fill="black"/>
<path d="M9.99996 0C4.48594 7.8125e-05 0 4.48598 0 9.99992C0 15.5139 4.48598 19.9999 10 19.9999C15.5141 19.9999 20 15.514 20 10C19.9999 4.48598 15.5139 0 9.99996 0ZM9.99996 16.8421C6.22719 16.8421 3.15789 13.7727 3.15789 9.99996C3.15789 9.56398 3.51137 9.2105 3.94734 9.2105C4.38332 9.2105 4.7368 9.56398 4.7368 9.99996C4.7368 12.9021 7.09777 15.2631 9.99992 15.2631C10.4359 15.2631 10.7894 15.6166 10.7894 16.0526C10.7894 16.4886 10.4359 16.8421 9.99996 16.8421ZM10.0003 13.6841C10.0003 13.6841 10.0002 13.6841 10.0003 13.6841C7.96883 13.6841 6.3159 12.0314 6.3159 9.99992C6.3159 7.96847 7.96855 6.31578 10.0001 6.31578C12.0316 6.31578 13.6843 7.96844 13.6843 9.99992C13.6843 12.0314 12.0316 13.6841 10.0003 13.6841ZM16.0525 10.7895C15.6165 10.7895 15.2631 10.436 15.2631 10C15.2631 8.59414 14.7157 7.27246 13.7217 6.27836C12.7276 5.28426 11.4059 4.73683 9.99996 4.73683C9.56395 4.73683 9.21051 4.38336 9.21051 3.94738C9.21051 3.51137 9.56398 3.15793 9.99996 3.15793C11.8276 3.15793 13.5458 3.86961 14.8382 5.16191C16.1305 6.45422 16.8421 8.17242 16.842 10C16.842 10.436 16.4885 10.7895 16.0525 10.7895Z" fill="black"/>
</svg>
