<svg width="20" height="20" viewBox="0 0 20 20" fill="none" xmlns="http://www.w3.org/2000/svg">
<path d="M13.5355 7.34835L7.34834 13.5355C7.10439 13.7795 6.70841 13.7795 6.46446 13.5355C6.22051 13.2916 6.22051 12.8956 6.46446 12.6517L12.6516 6.46447C12.8956 6.22052 13.2916 6.22052 13.5355 6.46447C13.7795 6.70842 13.7795 7.1044 13.5355 7.34835Z" fill="black"/>
<path d="M13.5355 13.5355C13.2916 13.7795 12.8956 13.7795 12.6516 13.5355L6.46446 7.34834C6.22051 7.10439 6.22051 6.70841 6.46446 6.46446C6.70841 6.22051 7.10439 6.22051 7.34834 6.46446L13.5355 12.6516C13.7795 12.8956 13.7795 13.2916 13.5355 13.5355Z" fill="black"/>
<rect x="0.5" y="0.5" width="19" height="19" rx="1.5" stroke="black"/>
</svg>
