<svg width="16" height="18" viewBox="0 0 16 18" fill="none" xmlns="http://www.w3.org/2000/svg">
<path d="M13.0313 3.79736L11.9529 16.0858H4.04708L2.96894 3.79736L1.60278 3.91712L2.70062 16.4284C2.7584 17.005 3.25876 17.4572 3.84002 17.4572H12.16C12.741 17.4572 13.2416 17.0053 13.3003 16.4202L14.3975 3.91712L13.0313 3.79736Z" fill="black"/>
<path d="M10.5142 0.542969H5.48564C4.85545 0.542969 4.34277 1.05565 4.34277 1.68583V3.85726H5.71418V1.91437H10.2856V3.85723H11.657V1.6858C11.657 1.05565 11.1444 0.542969 10.5142 0.542969Z" fill="black"/>
<path d="M15.3142 3.17151H0.685719C0.306967 3.17151 0 3.47848 0 3.85723C0 4.23598 0.306967 4.54295 0.685719 4.54295H15.3142C15.693 4.54295 16 4.23598 16 3.85723C16 3.47848 15.693 3.17151 15.3142 3.17151Z" fill="black"/>
</svg>
