<svg width="20" height="20" viewBox="0 0 20 20" fill="none" xmlns="http://www.w3.org/2000/svg">
<rect x="0.5" y="0.5" width="19" height="19" rx="1.5" stroke="black"/>
<path d="M13.5695 6.30884L12.8044 15.027H7.19557L6.43066 6.30884L5.46143 6.3938L6.2403 15.2701C6.28129 15.6792 6.63628 16 7.04866 16H12.9514C13.3636 16 13.7187 15.6794 13.7604 15.2642L14.5388 6.3938L13.5695 6.30884Z" fill="black"/>
<path d="M11.7838 4H8.21622C7.76912 4 7.4054 4.36373 7.4054 4.81082V6.35137H8.37836V4.97296H11.6216V6.35134H12.5946V4.8108C12.5946 4.36373 12.2309 4 11.7838 4Z" fill="black"/>
<path d="M15.1892 5.86499H4.8108C4.54209 5.86499 4.32431 6.08277 4.32431 6.35148C4.32431 6.62019 4.54209 6.83797 4.8108 6.83797H15.1892C15.4579 6.83797 15.6757 6.62019 15.6757 6.35148C15.6757 6.08277 15.4579 5.86499 15.1892 5.86499Z" fill="black"/>
</svg>
