<svg width="20" height="21" viewBox="0 0 20 21" fill="none" xmlns="http://www.w3.org/2000/svg">
<path d="M0.635534 20.3017C0.469385 20.3017 0.306496 20.2361 0.186155 20.1142C0.0283909 19.9555 -0.0352737 19.7252 0.0190741 19.5078L1.21302 14.6888C1.24097 14.5763 1.29873 14.473 1.3801 14.3912L14.8206 0.875621C15.7296 -0.0386186 17.2094 -0.0386186 18.1186 0.875621L19.3177 2.08139C20.2268 2.99563 20.2268 4.48371 19.3177 5.39779L5.8773 18.9134C5.79578 18.9952 5.69314 19.0541 5.58134 19.0814L0.789105 20.282C0.738173 20.2958 0.687242 20.3017 0.635534 20.3017ZM2.4037 15.1698L1.5082 18.7838L5.10215 17.8833L18.4188 4.49308C18.8318 4.07773 18.8318 3.40067 18.4188 2.98532L17.2197 1.77956C16.8059 1.36342 16.1324 1.3642 15.7203 1.77956L2.4037 15.1698ZM5.42777 18.4615H5.43631H5.42777Z" fill="black"/>
<path d="M16.8 7.66531C16.6372 7.66531 16.4743 7.603 16.3505 7.47777L12.7524 3.86031C12.5038 3.61032 12.5038 3.20528 12.7524 2.95544C13.0008 2.70561 13.4036 2.70561 13.6521 2.95544L17.2503 6.57384C17.4988 6.82367 17.4988 7.22872 17.2503 7.47855C17.1247 7.603 16.962 7.66531 16.8 7.66531Z" fill="black"/>
<path d="M5.42785 19.1011C5.26496 19.1011 5.10223 19.0387 4.97847 18.9134L1.38018 15.2951C1.13174 15.0451 1.13174 14.6401 1.38018 14.3903C1.62863 14.1404 2.03143 14.1404 2.28003 14.3903L5.87816 18.0086C6.12661 18.2585 6.12661 18.6635 5.87816 18.9134C5.75347 19.0387 5.59074 19.1011 5.42785 19.1011Z" fill="black"/>
</svg>
