<svg width="22" height="19" viewBox="0 0 22 19" fill="none" xmlns="http://www.w3.org/2000/svg">
<path d="M17.7877 3.61063H13.0495C11.9554 3.61063 11.0589 2.70141 11.0589 1.57357C11.0589 1.20177 10.7668 0.9 10.3978 0.9H4.21329C2.38543 0.9 0.900488 2.42113 0.900488 4.2842V15.2669C0.900488 17.13 2.38543 18.6511 4.21329 18.6511H17.7877C19.6155 18.6511 21.1005 17.13 21.1005 15.2669V6.99058C21.1005 5.12734 19.6154 3.61063 17.7877 3.61063ZM19.7783 15.2627C19.7783 16.3865 18.8857 17.2997 17.7877 17.2997H4.21329C3.11916 17.2997 2.22268 16.3905 2.22268 15.2627V4.2842C2.22268 3.16034 3.11526 2.24713 4.21329 2.24713H9.80347C10.1096 3.78971 11.4476 4.95776 13.0495 4.95776H17.7877C18.8818 4.95776 19.7783 5.86698 19.7783 6.99483V15.2627Z" fill="black" stroke="black" stroke-width="0.2"/>
</svg>
