<svg xmlns="http://www.w3.org/2000/svg" viewBox="0 0 20.21 20.2"><title>ic-home</title><g id="Layer_2" data-name="Layer 2"><g id="Layer_1-2" data-name="Layer 1"><path d="M19.64,8.73h0L11.48.57a1.93,1.93,0,0,0-2.74,0h0L.57,8.73h0a1.94,1.94,0,0,0,1.37,3.31h.2V18A2.16,2.16,0,0,0,2.42,19a2.71,2.71,0,0,0,.24.35h0l.17.18a1.07,1.07,0,0,0,.16.14,2.38,2.38,0,0,0,1.41.49H7.6a.68.68,0,0,0,.68-.69v-4.7a.89.89,0,0,1,.89-.89h1.88a.88.88,0,0,1,.88.89v4.7a.69.69,0,0,0,.69.69h3.19A2.26,2.26,0,0,0,18.07,18V12h.2a1.94,1.94,0,0,0,1.37-3.31Zm-1,1.77a.56.56,0,0,1-.4.17h-.89a.69.69,0,0,0-.69.69V18a.88.88,0,0,1-.88.88h-2.5v-4a2.26,2.26,0,0,0-2.26-2.26H9.17A2.24,2.24,0,0,0,7,14.28a1.88,1.88,0,0,0-.07.53v4H4.41a.91.91,0,0,1-.68-.31A.92.92,0,0,1,3.52,18V11.37a.69.69,0,0,0-.69-.69H1.94a.56.56,0,0,1-.4-.17.58.58,0,0,1,0-.8h0L2.26,9l.24-.24h0l5.05-5L9.71,1.54a.54.54,0,0,1,.4-.17.56.56,0,0,1,.4.17l7.2,7.19,1,1h0a.58.58,0,0,1,0,.8Z"/></g></g></svg>