<svg fill="none" height="17" viewBox="0 0 14 17" width="14" xmlns="http://www.w3.org/2000/svg">
    <path
        d="M6.10352e-05 2.97834V14.0224C6.10352e-05 15.5199 0.940013 16.7333 2.09961 16.7333C3.25932 16.7333 4.19984 15.5199 4.19984 14.0224V2.97834C4.19984 1.48151 3.25932 0.267578 2.09961 0.267578C0.940013 0.267103 6.10352e-05 1.48151 6.10352e-05 2.97834Z"
        fill="black" />
    <path
        d="M11.8998 0.266907C10.7403 0.266907 9.80038 1.48083 9.80038 2.97767V14.0217C9.80038 15.5193 10.7403 16.7322 11.8998 16.7322C13.0593 16.7322 14 15.5192 14 14.0217V2.97815C13.9995 1.48131 13.0593 0.266907 11.8998 0.266907Z"
        fill="black" />
</svg>
