<svg width="20" height="21" viewBox="0 0 20 21" fill="none" xmlns="http://www.w3.org/2000/svg">
<path d="M14.375 10.6844H5.625C5.28 10.6844 5 10.4028 5 10.0559C5 9.70893 5.28 9.42737 5.625 9.42737H14.375C14.72 9.42737 15 9.70893 15 10.0559C15 10.4028 14.72 10.6844 14.375 10.6844Z" fill="black"/>
<path d="M10 15.0838C9.655 15.0838 9.375 14.8023 9.375 14.4553V5.65645C9.375 5.30952 9.655 5.02795 10 5.02795C10.345 5.02795 10.625 5.30952 10.625 5.65645V14.4553C10.625 14.8023 10.345 15.0838 10 15.0838Z" fill="black"/>
<path d="M17.7083 20.1117H2.29172C1.02753 20.1117 0 19.0785 0 17.8072V2.30452C0 1.03327 1.02753 0 2.29172 0H17.7083C18.9725 0 20 1.03327 20 2.30452V17.8072C20 19.0785 18.9725 20.1117 17.7083 20.1117ZM2.29172 1.25698C1.71753 1.25698 1.25 1.72712 1.25 2.30452V17.8072C1.25 18.3846 1.71753 18.8547 2.29172 18.8547H17.7083C18.2825 18.8547 18.75 18.3846 18.75 17.8072V2.30452C18.75 1.72712 18.2825 1.25698 17.7083 1.25698H2.29172Z" fill="black"/>
</svg>
