<svg width="16" height="17" viewBox="0 0 16 17" fill="#BDBDBD" xmlns="http://www.w3.org/2000/svg">
<path d="M14.6793 9.27255C14.2526 9.27255 13.9067 9.61847 13.9067 10.0452C13.9067 11.3267 12.8704 12.3629 11.5889 12.3629H5.40818V10.0452C5.40818 9.39734 4.65881 9.03718 4.15295 9.44186L0.289963 12.5323C-0.0966543 12.8416 -0.0966543 13.4295 0.289963 13.7388L4.15295 16.8292C4.65881 17.234 5.40818 16.8738 5.40818 16.2259V13.9082H11.5889C13.7238 13.9082 15.4519 12.1801 15.4519 10.0452C15.4519 9.61847 15.106 9.27255 14.6793 9.27255ZM3.86297 14.6184L2.00936 13.1355L3.86297 11.6526V14.6184Z" fill="#BDBDBD" />
<path d="M0.772604 7.72741C1.19929 7.72741 1.54521 7.38149 1.54521 6.9548C1.54521 5.67328 2.58147 4.63703 3.86299 4.63703H10.0437V6.9548C10.0437 7.60262 10.7931 7.96278 11.299 7.5581L15.162 4.46772C15.5486 4.15842 15.5486 3.57042 15.162 3.26112L11.299 0.17074C10.7931 -0.233936 10.0437 0.126223 10.0437 0.774038V3.09182H3.86299C1.72809 3.09182 0 4.81988 0 6.9548C0 7.38149 0.345917 7.72741 0.772604 7.72741ZM11.5889 2.38152L13.4425 3.86442L11.5889 5.34732V2.38152Z" fill="#BDBDBD" />
</svg>
