<svg width="19" height="18" viewBox="0 0 19 18" fill="none" xmlns="http://www.w3.org/2000/svg">
<path d="M7.24824 6.78607C7.27243 6.75159 7.27242 6.70566 7.24822 6.67119L6.93951 6.23139C5.61708 4.34645 3.39604 3.22336 1 3.22336C0.944771 3.22336 0.9 3.26814 0.9 3.32336V4.57434C0.9 4.62957 0.944771 4.67434 1 4.67434C2.88591 4.67434 4.62953 5.55833 5.66584 7.03533C5.66584 7.03534 5.66584 7.03534 5.66585 7.03534L6.28771 7.92181C6.30643 7.94849 6.33698 7.96438 6.36957 7.96438C6.40217 7.96438 6.43272 7.9485 6.45144 7.92181L7.24824 6.78607ZM18.0685 14.124C18.0886 14.1051 18.1 14.0787 18.1 14.0511C18.1 14.0236 18.0886 13.9972 18.0685 13.9783L14.9336 11.0295C14.8951 10.9932 14.8351 10.9932 14.7966 11.0295L13.8561 11.9141C13.836 11.933 13.8246 11.9594 13.8246 11.9869C13.8246 12.0145 13.836 12.0409 13.8561 12.0598L15.2019 13.3257H14.9262C13.0402 13.3257 11.2966 12.4417 10.2604 10.9647L10.1785 11.0221L10.2604 10.9647L9.63838 10.0782C9.61965 10.0515 9.58911 10.0356 9.55651 10.0356C9.52392 10.0356 9.49337 10.0515 9.47465 10.0782L8.67798 11.2138C8.6538 11.2483 8.6538 11.2942 8.67798 11.3287L8.98658 11.7686L8.98658 11.7686C10.309 13.6534 12.5301 14.7766 14.9262 14.7766H15.2019L13.8561 16.0425C13.836 16.0614 13.8246 16.0878 13.8246 16.1154C13.8246 16.1429 13.836 16.1693 13.8561 16.1882L14.7966 17.0728C14.8351 17.1091 14.8951 17.1091 14.9336 17.0728L18.0685 14.124ZM10.2604 7.03534L10.1785 6.97791L10.2604 7.03534C11.2966 5.55834 13.0402 4.67434 14.9262 4.67434H15.2019L13.8561 5.94022C13.836 5.95912 13.8246 5.98548 13.8246 6.01306C13.8246 6.04064 13.836 6.067 13.8561 6.0859L14.7966 6.97054C14.8351 7.00676 14.8951 7.00676 14.9336 6.97054L18.0685 4.02169C18.0886 4.00279 18.1 3.97644 18.1 3.94885C18.1 3.92127 18.0886 3.89491 18.0685 3.87601L14.9336 0.927161C14.8951 0.890946 14.8351 0.890946 14.7966 0.927161L13.8561 1.8118C13.836 1.8307 13.8246 1.85706 13.8246 1.88464C13.8246 1.91223 13.836 1.93858 13.8561 1.95748L15.2019 3.22336H14.9262C12.5301 3.22336 10.309 4.34645 8.98658 6.23139L5.66584 10.9647C4.62954 12.4417 2.88592 13.3257 1 13.3257C0.944771 13.3257 0.9 13.3704 0.9 13.4257V14.6766C0.9 14.7319 0.944771 14.7766 1 14.7766C3.39604 14.7766 5.61721 13.6536 6.93964 11.7686L10.2604 7.03534Z" fill="#BDBDBD" stroke="#BDBDBD" stroke-width="0.2" stroke-linecap="round" stroke-linejoin="round"/>
</svg>
