<svg width="18" height="19" viewBox="0 0 18 19" fill="none" xmlns="http://www.w3.org/2000/svg">
<path d="M14 11.9234C13.0096 11.9234 12.1263 12.3887 11.5585 13.1108L6.99684 10.7887C7.06404 10.5362 7.1 10.2712 7.1 9.99805C7.1 9.619 7.03091 9.25563 6.90482 8.9197L11.6961 6.05223C12.2638 6.68053 13.0863 7.07656 14 7.07656C15.7091 7.07656 17.1 5.69162 17.1 3.98828C17.1 2.28495 15.7091 0.9 14 0.9C12.2909 0.9 10.9 2.28495 10.9 3.98828C10.9 4.35198 10.9636 4.70126 11.0801 5.02572L6.27441 7.90181C5.70792 7.29225 4.89798 6.90977 4 6.90977C2.29094 6.90977 0.9 8.29471 0.9 9.99805C0.9 11.7014 2.29094 13.0863 4 13.0863C5.00673 13.0863 5.90273 12.6057 6.46921 11.8632L11.015 14.1772C10.9401 14.4428 10.9 14.7227 10.9 15.0117C10.9 16.7151 12.2909 18.1 14 18.1C15.7091 18.1 17.1 16.7151 17.1 15.0117C17.1 13.3084 15.7091 11.9234 14 11.9234ZM14 2.09609C15.0479 2.09609 15.9 2.94539 15.9 3.98828C15.9 5.03118 15.0479 5.88047 14 5.88047C12.9521 5.88047 12.1 5.03118 12.1 3.98828C12.1 2.94539 12.9521 2.09609 14 2.09609ZM4 11.8902C2.95206 11.8902 2.1 11.0409 2.1 9.99805C2.1 8.95515 2.95206 8.10586 4 8.10586C5.04794 8.10586 5.9 8.95515 5.9 9.99805C5.9 11.0409 5.04794 11.8902 4 11.8902ZM14 16.9039C12.9521 16.9039 12.1 16.0546 12.1 15.0117C12.1 13.9688 12.9521 13.1195 14 13.1195C15.0479 13.1195 15.9 13.9688 15.9 15.0117C15.9 16.0546 15.0479 16.9039 14 16.9039Z" fill="black" stroke="black" stroke-width="0.2"/>
</svg>
